PathFileType	4	(X/Y/Z)	/home/abdul/Desktop/myosuite/custom_workspace/IK/output/S13_12_2.trc
DataRate	CameraRate	NumFrames	NumMarkers	Units	OrigDataRate	OrigDataStartFrame	OrigNumFrames
200.0	200.0	39	3	mm	200.0	527	1403
Frame#	Time	V_Shoulder			V_Elbow			V_Wrist		
		X1	Y1	Z1	X2	Y2	Z2	X3	Y3	Z3

527	2.63	-80.17479435524578	610.533936877438	340.4947896150038	-219.18714333752084	471.71968806163363	47.68065530037928	-90.20142254005648	341.78386950717174	236.17868896709956
528	2.635	-80.21126575093571	610.7521689199544	340.5415769228683	-219.1203532297825	471.53991032172326	47.94861703631355	-90.1241729737662	342.91864593937476	237.29679785006417
529	2.64	-80.24712194774541	610.9681729507996	340.5880888345603	-219.04912197735854	471.35882149988623	48.21408366648459	-90.04802437435383	344.0412812553108	238.39669288980315
530	2.645	-80.2823710359026	611.181913252235	340.6343134178957	-218.97352363980633	471.1765340155365	48.47695407599868	-89.97296873175762	345.1515652931255	239.47837658056199
531	2.65	-80.31702132897887	611.3933556579201	340.68023899637416	-218.89363416823198	470.99315693624584	48.73713123261455	-89.89899916978644	346.2492972384464	240.5418615320227
532	2.655	-80.35108135226052	611.602467558543	340.7258541598405	-218.8095313468461	470.8087958342371	48.99452239946911	-89.82610990769712	347.3342858387042	241.58717049759028
533	2.66	-80.3845598309497	611.8092179059475	340.7711477745627	-218.7212947343598	470.6235526544958	49.2490393385288	-89.75429621200713	348.4063496138532	242.61433639496195
534	2.665	-80.41746567822383	612.0135772157786	340.8161089926746	-218.62900560545444	470.43752559494453	49.50059850388557	-89.68355433886228	349.46531706298464	243.62340231796406
535	2.67	-80.44980798318183	612.2155175686631	340.86072726093096	-218.53274689255755	470.2508089990938	49.74912122404117	-89.61388146733684	350.51102686627326	244.6144215386857
536	2.675	-80.48159599870688	612.4150126099529	340.9049923287267	-218.43260312815661	470.06349326156027	49.99453387235115	-89.54527562410063	351.54332808165213	245.58745749898708
537	2.68	-80.51283912927596	612.6120375480492	340.94889425533046	-218.32866038787446	469.8756647468127	50.236768024830795	-89.47773559994178	352.5620803355589	246.54258379051436
538	2.685	-80.54354691874777	612.8065691513331	340.99242341628775	-218.2210062345232	469.68740572147897	50.47576060455907	-89.41126085868754	353.567154007045	247.4798841224114
539	2.69	-80.57372903815998	612.9985857437292	341.0355705089518	-218.10972966334103	469.4987943005166	50.71145401195275	-89.34585143911467	354.55843040449156	248.39945227597872
540	2.695	-80.60339527356858	613.1880671989234	341.07832655709853	-217.99492104860292	469.30990440751674	50.94379624022226	-89.28150785048976	355.5358019341212	249.30139204559498
541	2.7	-80.6325555139611	613.3749949332649	341.12068291459104	-217.87667209178045	469.1208057493822	51.172740975361975	-89.21823096242295	356.49917225944586	250.18581716528055
542	2.705	-80.66121973927677	613.5593518973766	341.16263126805603	-217.75507577140627	468.93156380558344	51.398247680071705	-89.15602188976027	357.4484564507419	251.05285122034968
543	2.71	-80.68939800856609	613.7411225665002	341.20416363854343	-217.63022629478	468.7422398321643	51.62028166105245	-89.09488187327598	358.38358112359015	251.902627543664
544	2.715	-80.71710044832189	613.9202929296051	341.2452723821394	-217.50221905162732	468.5528908806338	51.838814119167324	-89.03481215696064	359.3044845654748	252.735289096067
545	2.72	-80.74433724101468	614.0968504772896	341.28595018950926	-217.3711505698034	468.3635698318423	52.05382218200924	-88.97581386272813	360.21111684938546	253.55098833064284
546	2.725	-80.77111861386369	614.2707841884999	341.326190084351	-217.23711847310494	468.1743254449061	52.26528891846892	-88.91788786338991	361.10343993332094	254.34988704050858
547	2.73	-80.79745482787514	614.4420845160961	341.3659854207406	-217.1002214412295	467.9852024212048	52.47320333495069	-88.86103465476424	361.98142774455414	255.13215618990702
548	2.735	-80.82335616717808	614.6107433712981	341.4053298793599	-216.96055917189466	467.79624148343675	52.67756035293917	-88.80525422780246	362.8450662474726	255.89797572842792
549	2.74	-80.84883292868793	614.7767541070353	341.44421746259695	-216.81823234510176	467.60747946968024	52.87836076767704	-88.75054594162434	363.69435349377795	256.6475343882389
550	2.745	-80.87389541212606	614.9401115002339	341.48264248851655	-216.6733425895033	467.4189494423665	53.075611187772566	-88.69690839835913	364.52929965378956	257.38102946425784
551	2.75	-80.89855391042336	615.1008117330683	341.5205995837012	-216.52599245080495	467.23068081203064	53.26932395561505	-88.64433932068764	365.34992702757273	258.098666577246
552	2.755	-80.92281870053408	615.2588523732082	341.55808367496894	-216.37628536210792	467.0426994756657	53.45951704853768	-88.59283543297528	366.156270034586	258.800659419843
553	2.76	-80.94670003468515	615.4142323530936	341.5950899799772	-216.2243256160707	466.85502796946435	53.64621396072859	-88.54239234687459	366.9483751805245	259.48722948560095
554	2.765	-80.97020813208398	615.5669519482623	341.6316139967287	-216.07021833874558	466.6676856356885	53.82944356595398	-88.49300445225894	367.7263010000239	260.15860578110943
555	2.77	-80.99335317110723	615.717012754767	341.6676514919979	-215.91406946492185	466.48068880336865	54.009239961220345	-88.4446648143275	368.49011797388056	260.81502452132764
556	2.775	-81.0161452819898	615.8644176657072	341.703198488703	-215.75598571478508	466.2940509824897	54.18564229156675	-88.3973650776951	369.23990841944976	261.45672880826584
557	2.78	-81.03859454003283	616.0091708469082	341.7382512522518	-215.596074571682	466.1077830712795	54.358694556242334	-88.35109537824877	369.9757663528867	262.0839682931729
558	2.785	-81.06071095934658	616.1512777117781	341.77280627589624	-215.43444426076314	465.92189357617366	54.52844539658868	-88.3058442635154	370.69779732191546	262.69699882240195
559	2.79	-81.08250448714196	616.290744895371	341.80686026513166	-215.2712037282564	465.7363888439878	54.69494786601119	-88.26159862224534	371.4061182078336	263.2960820671328
560	2.795	-81.10398499858296	616.4275802276884	341.84041012118615	-215.1064626211131	465.5512733057885	54.858259182487856	-88.21834362386996	372.10085699549506	263.8814851371366
561	2.8	-81.12516229220888	616.5617927062472	341.87345292364535	-214.94033126675384	465.3665497319105	55.018440464127664	-88.17606266844277	372.782152510058	264.4534801787672
562	2.805	-81.14604608593389	616.6933924679442	341.905985912264	-214.77292065263214	465.18221949752865	55.175556448354406	-88.13473734761988	373.4501541193347	265.012343957362
563	2.81	-81.16664601362815	616.8223907602484	341.93800646802197	-214.60434240532675	464.99828285815084	55.32967519535402	-88.09434741717914	374.10502140064807	265.5583574242318
564	2.815	-81.18697162228287	616.9487999117465	341.9695120934823	-214.43470876886678	464.81473923435976	55.48086777648574	-88.0548707815181	374.74692377116855	266.09180526840964
565	2.82	-81.20703236975852	617.0726333020765	342.0005003925162	-214.26413258199273	464.63158750509206	55.629207948417246	-88.01628349050779	375.37604008079256	266.6129754533231
